ffmpeg started on 2025-05-28 at 21:39:46
Report written to "D:\Convert\FFMetrics\reports\ssim_report-6.txt"
Log level: 32
Command line:
ffmpeg -hide_banner -nostdin -i "G:\\\xc0\xed\xe8\xec\xe5\\\xce\xed\xe3\xee\xe8\xed\xe3\xe8\\!_36_\xce\xf1\xe5\xed\xfc_2024\\JamClub\\\xcb\xfe\xe1\xee\xe2\xfc \xcc\xf3\xf0\xe0\xe8\\JamClub_Murai_no_Koi_09_1080p_HEVC.mkv" -i "G:\\\xc0\xed\xe8\xec\xe5\\\xce\xed\xe3\xee\xe8\xed\xe3\xe8\\!_36_\xce\xf1\xe5\xed\xfc_2024\\JamClub\\\xcb\xfe\xe1\xee\xe2\xfc \xcc\xf3\xf0\xe0\xe8\\JamClub_Murai_no_Koi_09_1080p.mp4" -lavfi "[0:v]settb=AVTB,setpts=PTS-STARTPTS,format=pix_fmts=yuv420p10,fps=24000/1001,scale=1920:1080:flags=bicubic[main];[1:v]settb=AVTB,setpts=PTS-STARTPTS,format=pix_fmts=yuv420p,fps=24000/1001,scale=1920:1080:flags=bicubic[ref];[main][ref]ssim=eof_action=endall:stats_file='D\\:/Convert/FFMetrics/logs/ssim_logfile-6.txt'" -f null -
Input #0, matroska,webm, from 'G:\Аниме\Онгоинги\!_36_Осень_2024\JamClub\Любовь Мураи\JamClub_Murai_no_Koi_09_1080p_HEVC.mkv':
  Metadata:
    COMPATIBLE_BRANDS: isomiso2avc1mp41
    MAJOR_BRAND     : isom
    MINOR_VERSION   : 512
    ENCODER         : Lavf61.7.100
  Duration: 00:24:34.35, start: -0.021000, bitrate: 1469 kb/s
  Stream #0:0: Video: hevc (Main 10), yuv420p10le(tv, bt709, progressive), 1920x1080 [SAR 1:1 DAR 16:9], 23.98 fps, 23.98 tbr, 1k tbn (default)
      Metadata:
        HANDLER_NAME    : VideoHandler
        VENDOR_ID       : [0][0][0][0]
        ENCODER         : Lavc61.19.100 libx265
        BPS             : 1271947
        DURATION        : 00:24:34.180708333
        NUMBER_OF_FRAMES: 35345
        NUMBER_OF_BYTES : 234384862
        _STATISTICS_WRITING_APP: mkvpropedit v66.0.0 ('Josie') 64-bit
        _STATISTICS_WRITING_DATE_UTC: 2025-05-28 13:24:37
        _STATISTICS_TAGS: BPS DURATION NUMBER_OF_FRAMES NUMBER_OF_BYTES
  Stream #0:1(eng): Audio: aac (LC), 48000 Hz, stereo, fltp (default)
      Metadata:
        HANDLER_NAME    : SoundHandler
        VENDOR_ID       : [0][0][0][0]
        ENCODER         : Lavc61.19.100 aac
        BPS             : 194052
        DURATION        : 00:24:34.328000000
        NUMBER_OF_FRAMES: 69110
        NUMBER_OF_BYTES : 35762108
        _STATISTICS_WRITING_APP: mkvpropedit v66.0.0 ('Josie') 64-bit
        _STATISTICS_WRITING_DATE_UTC: 2025-05-28 13:24:37
        _STATISTICS_TAGS: BPS DURATION NUMBER_OF_FRAMES NUMBER_OF_BYTES
Input #1, mov,mp4,m4a,3gp,3g2,mj2, from 'G:\Аниме\Онгоинги\!_36_Осень_2024\JamClub\Любовь Мураи\JamClub_Murai_no_Koi_09_1080p.mp4':
  Metadata:
    major_brand     : isom
    minor_version   : 512
    compatible_brands: isomiso2avc1mp41
    encoder         : Lavf60.16.100
  Duration: 00:24:34.33, start: 0.000000, bitrate: 5087 kb/s
  Stream #1:0[0x1](und): Video: h264 (High) (avc1 / 0x31637661), yuv420p(tv, bt709, progressive), 1920x1080 [SAR 1:1 DAR 16:9], 4889 kb/s, 23.98 fps, 23.98 tbr, 90k tbn (default)
      Metadata:
        handler_name    : VideoHandler
        vendor_id       : [0][0][0][0]
  Stream #1:1[0x2](eng): Audio: aac (LC) (mp4a / 0x6134706D), 48000 Hz, stereo, fltp, 191 kb/s (default)
      Metadata:
        handler_name    : SoundHandler
        vendor_id       : [0][0][0][0]
Stream mapping:
  Stream #0:0 (hevc) -> settb:default
  Stream #1:0 (h264) -> settb:default
  ssim:default -> Stream #0:0 (wrapped_avframe)
  Stream #0:1 -> #0:1 (aac (native) -> pcm_s16le (native))
Output #0, null, to 'pipe:':
  Metadata:
    COMPATIBLE_BRANDS: isomiso2avc1mp41
    MAJOR_BRAND     : isom
    MINOR_VERSION   : 512
    encoder         : Lavf61.7.100
  Stream #0:0: Video: wrapped_avframe, yuv420p10le(tv, bt709, progressive), 1920x1080 [SAR 1:1 DAR 16:9], q=2-31, 200 kb/s, 23.98 fps, 23.98 tbn
      Metadata:
        encoder         : Lavc61.19.100 wrapped_avframe
  Stream #0:1(eng): Audio: pcm_s16le, 48000 Hz, stereo, s16, 1536 kb/s (default)
      Metadata:
        HANDLER_NAME    : SoundHandler
        VENDOR_ID       : [0][0][0][0]
        _STATISTICS_TAGS: BPS DURATION NUMBER_OF_FRAMES NUMBER_OF_BYTES
        BPS             : 194052
        DURATION        : 00:24:34.328000000
        NUMBER_OF_FRAMES: 69110
        NUMBER_OF_BYTES : 35762108
        _STATISTICS_WRITING_APP: mkvpropedit v66.0.0 ('Josie') 64-bit
        _STATISTICS_WRITING_DATE_UTC: 2025-05-28 13:24:37
        encoder         : Lavc61.19.100 pcm_s16le
frame=  121 fps=0.0 q=-0.0 size=N/A time=00:00:05.04 bitrate=N/A speed=9.56x    frame=  287 fps=277 q=-0.0 size=N/A time=00:00:11.97 bitrate=N/A speed=11.6x    frame=  496 fps=318 q=-0.0 size=N/A time=00:00:20.68 bitrate=N/A speed=13.3x    frame=  678 fps=328 q=-0.0 size=N/A time=00:00:28.27 bitrate=N/A speed=13.7x    frame=  838 fps=324 q=-0.0 size=N/A time=00:00:34.95 bitrate=N/A speed=13.5x    frame=  983 fps=317 q=-0.0 size=N/A time=00:00:40.99 bitrate=N/A speed=13.2x    frame= 1144 fps=316 q=-0.0 size=N/A time=00:00:47.71 bitrate=N/A speed=13.2x    frame= 1348 fps=326 q=-0.0 size=N/A time=00:00:56.22 bitrate=N/A speed=13.6x    frame= 1487 fps=320 q=-0.0 size=N/A time=00:01:02.02 bitrate=N/A speed=13.3x    frame= 1701 fps=330 q=-0.0 size=N/A time=00:01:10.94 bitrate=N/A speed=13.8x    frame= 1880 fps=331 q=-0.0 size=N/A time=00:01:18.41 bitrate=N/A speed=13.8x    frame= 2027 fps=327 q=-0.0 size=N/A time=00:01:24.54 bitrate=N/A speed=13.6x    frame= 2172 fps=324 q=-0.0 size=N/A time=00:01:30.59 bitrate=N/A speed=13.5x    frame= 2363 fps=327 q=-0.0 size=N/A time=00:01:38.55 bitrate=N/A speed=13.6x    frame= 2548 fps=329 q=-0.0 size=N/A time=00:01:46.27 bitrate=N/A speed=13.7x    frame= 2781 fps=337 q=-0.0 size=N/A time=00:01:55.99 bitrate=N/A speed=  14x    frame= 3043 fps=347 q=-0.0 size=N/A time=00:02:06.91 bitrate=N/A speed=14.5x    frame= 3280 fps=353 q=-0.0 size=N/A time=00:02:16.80 bitrate=N/A speed=14.7x    frame= 3493 fps=356 q=-0.0 size=N/A time=00:02:25.68 bitrate=N/A speed=14.9x    frame= 3737 fps=362 q=-0.0 size=N/A time=00:02:35.86 bitrate=N/A speed=15.1x    frame= 3969 fps=366 q=-0.0 size=N/A time=00:02:45.54 bitrate=N/A speed=15.3x    frame= 4240 fps=373 q=-0.0 size=N/A time=00:02:56.84 bitrate=N/A speed=15.6x    frame= 4509 fps=380 q=-0.0 size=N/A time=00:03:08.06 bitrate=N/A speed=15.9x    frame= 4776 fps=386 q=-0.0 size=N/A time=00:03:19.19 bitrate=N/A speed=16.1x    frame= 5032 fps=390 q=-0.0 size=N/A time=00:03:29.87 bitrate=N/A speed=16.3x    frame= 5277 fps=393 q=-0.0 size=N/A time=00:03:40.09 bitrate=N/A speed=16.4x    frame= 5543 fps=398 q=-0.0 size=N/A time=00:03:51.18 bitrate=N/A speed=16.6x    frame= 5821 fps=403 q=-0.0 size=N/A time=00:04:02.78 bitrate=N/A speed=16.8x    frame= 6072 fps=406 q=-0.0 size=N/A time=00:04:13.25 bitrate=N/A speed=16.9x    frame= 6289 fps=407 q=-0.0 size=N/A time=00:04:22.30 bitrate=N/A speed=  17x    frame= 6565 fps=410 q=-0.0 size=N/A time=00:04:33.81 bitrate=N/A speed=17.1x    frame= 6774 fps=411 q=-0.0 size=N/A time=00:04:42.53 bitrate=N/A speed=17.1x    frame= 7055 fps=414 q=-0.0 size=N/A time=00:04:54.25 bitrate=N/A speed=17.3x    frame= 7310 fps=417 q=-0.0 size=N/A time=00:05:04.88 bitrate=N/A speed=17.4x    frame= 7590 fps=420 q=-0.0 size=N/A time=00:05:16.56 bitrate=N/A speed=17.5x    frame= 7863 fps=424 q=-0.0 size=N/A time=00:05:27.95 bitrate=N/A speed=17.7x    frame= 8144 fps=427 q=-0.0 size=N/A time=00:05:39.67 bitrate=N/A speed=17.8x    frame= 8404 fps=429 q=-0.0 size=N/A time=00:05:50.51 bitrate=N/A speed=17.9x    frame= 8628 fps=429 q=-0.0 size=N/A time=00:05:59.85 bitrate=N/A speed=17.9x    frame= 8868 fps=430 q=-0.0 size=N/A time=00:06:09.86 bitrate=N/A speed=17.9x    frame= 9127 fps=432 q=-0.0 size=N/A time=00:06:20.67 bitrate=N/A speed=  18x    frame= 9384 fps=433 q=-0.0 size=N/A time=00:06:31.39 bitrate=N/A speed=18.1x    frame= 9642 fps=435 q=-0.0 size=N/A time=00:06:42.15 bitrate=N/A speed=18.1x    frame= 9866 fps=435 q=-0.0 size=N/A time=00:06:51.49 bitrate=N/A speed=18.1x    frame=10111 fps=436 q=-0.0 size=N/A time=00:07:01.71 bitrate=N/A speed=18.2x    frame=10311 fps=435 q=-0.0 size=N/A time=00:07:10.05 bitrate=N/A speed=18.1x    frame=10580 fps=437 q=-0.0 size=N/A time=00:07:21.27 bitrate=N/A speed=18.2x    frame=10849 fps=438 q=-0.0 size=N/A time=00:07:32.49 bitrate=N/A speed=18.3x    frame=11092 fps=439 q=-0.0 size=N/A time=00:07:42.62 bitrate=N/A speed=18.3x    frame=11314 fps=439 q=-0.0 size=N/A time=00:07:51.88 bitrate=N/A speed=18.3x    frame=11527 fps=438 q=-0.0 size=N/A time=00:08:00.77 bitrate=N/A speed=18.3x    frame=11725 fps=437 q=-0.0 size=N/A time=00:08:09.03 bitrate=N/A speed=18.2x    frame=11918 fps=436 q=-0.0 size=N/A time=00:08:17.07 bitrate=N/A speed=18.2x    frame=12178 fps=437 q=-0.0 size=N/A time=00:08:27.92 bitrate=N/A speed=18.2x    frame=12442 fps=439 q=-0.0 size=N/A time=00:08:38.93 bitrate=N/A speed=18.3x    frame=12692 fps=439 q=-0.0 size=N/A time=00:08:49.36 bitrate=N/A speed=18.3x    frame=12913 fps=439 q=-0.0 size=N/A time=00:08:58.57 bitrate=N/A speed=18.3x    frame=13175 fps=440 q=-0.0 size=N/A time=00:09:09.50 bitrate=N/A speed=18.4x    frame=13437 fps=442 q=-0.0 size=N/A time=00:09:20.43 bitrate=N/A speed=18.4x    frame=13692 fps=443 q=-0.0 size=N/A time=00:09:31.07 bitrate=N/A speed=18.5x    frame=13957 fps=444 q=-0.0 size=N/A time=00:09:42.12 bitrate=N/A speed=18.5x    frame=14228 fps=445 q=-0.0 size=N/A time=00:09:53.42 bitrate=N/A speed=18.6x    frame=14497 fps=446 q=-0.0 size=N/A time=00:10:04.64 bitrate=N/A speed=18.6x    frame=14723 fps=446 q=-0.0 size=N/A time=00:10:14.07 bitrate=N/A speed=18.6x    frame=14913 fps=445 q=-0.0 size=N/A time=00:10:21.99 bitrate=N/A speed=18.6x    frame=15195 fps=446 q=-0.0 size=N/A time=00:10:33.75 bitrate=N/A speed=18.6x    frame=15466 fps=448 q=-0.0 size=N/A time=00:10:45.06 bitrate=N/A speed=18.7x    frame=15698 fps=448 q=-0.0 size=N/A time=00:10:54.73 bitrate=N/A speed=18.7x    frame=15981 fps=449 q=-0.0 size=N/A time=00:11:06.54 bitrate=N/A speed=18.7x    frame=16237 fps=450 q=-0.0 size=N/A time=00:11:17.21 bitrate=N/A speed=18.8x    frame=16467 fps=450 q=-0.0 size=N/A time=00:11:26.81 bitrate=N/A speed=18.8x    frame=16698 fps=450 q=-0.0 size=N/A time=00:11:36.44 bitrate=N/A speed=18.8x    frame=16921 fps=450 q=-0.0 size=N/A time=00:11:45.74 bitrate=N/A speed=18.7x    frame=17148 fps=449 q=-0.0 size=N/A time=00:11:55.21 bitrate=N/A speed=18.7x    frame=17382 fps=449 q=-0.0 size=N/A time=00:12:04.97 bitrate=N/A speed=18.7x    frame=17606 fps=449 q=-0.0 size=N/A time=00:12:14.31 bitrate=N/A speed=18.7x    frame=17855 fps=450 q=-0.0 size=N/A time=00:12:24.70 bitrate=N/A speed=18.8x    frame=18100 fps=450 q=-0.0 size=N/A time=00:12:34.92 bitrate=N/A speed=18.8x    frame=18350 fps=450 q=-0.0 size=N/A time=00:12:45.34 bitrate=N/A speed=18.8x    frame=18560 fps=450 q=-0.0 size=N/A time=00:12:54.10 bitrate=N/A speed=18.8x    frame=18772 fps=449 q=-0.0 size=N/A time=00:13:02.94 bitrate=N/A speed=18.7x    frame=19014 fps=450 q=-0.0 size=N/A time=00:13:13.04 bitrate=N/A speed=18.8x    frame=19294 fps=451 q=-0.0 size=N/A time=00:13:24.72 bitrate=N/A speed=18.8x    frame=19549 fps=451 q=-0.0 size=N/A time=00:13:35.35 bitrate=N/A speed=18.8x    frame=19794 fps=452 q=-0.0 size=N/A time=00:13:45.57 bitrate=N/A speed=18.8x    frame=20057 fps=452 q=-0.0 size=N/A time=00:13:56.54 bitrate=N/A speed=18.9x    frame=20324 fps=453 q=-0.0 size=N/A time=00:14:07.68 bitrate=N/A speed=18.9x    frame=20596 fps=454 q=-0.0 size=N/A time=00:14:19.02 bitrate=N/A speed=18.9x    frame=20835 fps=454 q=-0.0 size=N/A time=00:14:28.99 bitrate=N/A speed=18.9x    frame=21105 fps=455 q=-0.0 size=N/A time=00:14:40.25 bitrate=N/A speed=  19x    frame=21318 fps=454 q=-0.0 size=N/A time=00:14:49.13 bitrate=N/A speed=18.9x    frame=21556 fps=454 q=-0.0 size=N/A time=00:14:59.06 bitrate=N/A speed=18.9x    frame=21802 fps=455 q=-0.0 size=N/A time=00:15:09.32 bitrate=N/A speed=  19x    frame=22036 fps=455 q=-0.0 size=N/A time=00:15:19.08 bitrate=N/A speed=  19x    frame=22267 fps=455 q=-0.0 size=N/A time=00:15:28.71 bitrate=N/A speed=  19x    frame=22451 fps=453 q=-0.0 size=N/A time=00:15:36.39 bitrate=N/A speed=18.9x    frame=22648 fps=453 q=-0.0 size=N/A time=00:15:44.61 bitrate=N/A speed=18.9x    frame=22916 fps=453 q=-0.0 size=N/A time=00:15:55.78 bitrate=N/A speed=18.9x    frame=23167 fps=454 q=-0.0 size=N/A time=00:16:06.25 bitrate=N/A speed=18.9x    frame=23404 fps=454 q=-0.0 size=N/A time=00:16:16.14 bitrate=N/A speed=18.9x    frame=23641 fps=454 q=-0.0 size=N/A time=00:16:26.02 bitrate=N/A speed=18.9x    frame=23883 fps=454 q=-0.0 size=N/A time=00:16:36.12 bitrate=N/A speed=18.9x    frame=24134 fps=454 q=-0.0 size=N/A time=00:16:46.58 bitrate=N/A speed=  19x    frame=24386 fps=455 q=-0.0 size=N/A time=00:16:57.09 bitrate=N/A speed=  19x    frame=24645 fps=455 q=-0.0 size=N/A time=00:17:07.90 bitrate=N/A speed=  19x    frame=24892 fps=455 q=-0.0 size=N/A time=00:17:18.20 bitrate=N/A speed=  19x    frame=25149 fps=456 q=-0.0 size=N/A time=00:17:28.92 bitrate=N/A speed=  19x    frame=25398 fps=456 q=-0.0 size=N/A time=00:17:39.30 bitrate=N/A speed=  19x    frame=25613 fps=456 q=-0.0 size=N/A time=00:17:48.27 bitrate=N/A speed=  19x    frame=25852 fps=456 q=-0.0 size=N/A time=00:17:58.24 bitrate=N/A speed=  19x    frame=26125 fps=456 q=-0.0 size=N/A time=00:18:09.63 bitrate=N/A speed=  19x    frame=26388 fps=457 q=-0.0 size=N/A time=00:18:20.59 bitrate=N/A speed=19.1x    frame=26624 fps=457 q=-0.0 size=N/A time=00:18:30.44 bitrate=N/A speed=19.1x    frame=26880 fps=457 q=-0.0 size=N/A time=00:18:41.12 bitrate=N/A speed=19.1x    frame=27090 fps=457 q=-0.0 size=N/A time=00:18:49.87 bitrate=N/A speed=19.1x    frame=27308 fps=456 q=-0.0 size=N/A time=00:18:58.97 bitrate=N/A speed=  19x    frame=27550 fps=457 q=-0.0 size=N/A time=00:19:09.06 bitrate=N/A speed=  19x    frame=27778 fps=456 q=-0.0 size=N/A time=00:19:18.57 bitrate=N/A speed=  19x    frame=27993 fps=456 q=-0.0 size=N/A time=00:19:27.54 bitrate=N/A speed=  19x    frame=28203 fps=456 q=-0.0 size=N/A time=00:19:36.30 bitrate=N/A speed=  19x    frame=28441 fps=456 q=-0.0 size=N/A time=00:19:46.22 bitrate=N/A speed=  19x    frame=28711 fps=456 q=-0.0 size=N/A time=00:19:57.48 bitrate=N/A speed=  19x    frame=28963 fps=457 q=-0.0 size=N/A time=00:20:07.99 bitrate=N/A speed=  19x    frame=29208 fps=457 q=-0.0 size=N/A time=00:20:18.21 bitrate=N/A speed=19.1x    frame=29426 fps=457 q=-0.0 size=N/A time=00:20:27.30 bitrate=N/A speed=  19x    frame=29621 fps=456 q=-0.0 size=N/A time=00:20:35.44 bitrate=N/A speed=  19x    frame=29861 fps=456 q=-0.0 size=N/A time=00:20:45.45 bitrate=N/A speed=  19x    frame=30090 fps=456 q=-0.0 size=N/A time=00:20:55.00 bitrate=N/A speed=  19x    frame=30356 fps=456 q=-0.0 size=N/A time=00:21:06.09 bitrate=N/A speed=  19x    frame=30593 fps=456 q=-0.0 size=N/A time=00:21:15.98 bitrate=N/A speed=  19x    frame=30836 fps=456 q=-0.0 size=N/A time=00:21:26.11 bitrate=N/A speed=  19x    frame=31058 fps=456 q=-0.0 size=N/A time=00:21:35.37 bitrate=N/A speed=  19x    frame=31353 fps=457 q=-0.0 size=N/A time=00:21:47.68 bitrate=N/A speed=19.1x    frame=31587 fps=457 q=-0.0 size=N/A time=00:21:57.48 bitrate=N/A speed=19.1x    frame=31823 fps=457 q=-0.0 size=N/A time=00:22:07.28 bitrate=N/A speed=19.1x    frame=32112 fps=458 q=-0.0 size=N/A time=00:22:19.33 bitrate=N/A speed=19.1x    frame=32361 fps=458 q=-0.0 size=N/A time=00:22:29.72 bitrate=N/A speed=19.1x    frame=32600 fps=458 q=-0.0 size=N/A time=00:22:39.69 bitrate=N/A speed=19.1x    frame=32826 fps=458 q=-0.0 size=N/A time=00:22:49.11 bitrate=N/A speed=19.1x    frame=33066 fps=458 q=-0.0 size=N/A time=00:22:59.12 bitrate=N/A speed=19.1x    frame=33262 fps=457 q=-0.0 size=N/A time=00:23:07.30 bitrate=N/A speed=19.1x    frame=33429 fps=456 q=-0.0 size=N/A time=00:23:14.26 bitrate=N/A speed=  19x    frame=33663 fps=456 q=-0.0 size=N/A time=00:23:24.02 bitrate=N/A speed=  19x    frame=33866 fps=456 q=-0.0 size=N/A time=00:23:32.49 bitrate=N/A speed=  19x    frame=34047 fps=455 q=-0.0 size=N/A time=00:23:40.04 bitrate=N/A speed=  19x    frame=34238 fps=455 q=-0.0 size=N/A time=00:23:48.00 bitrate=N/A speed=  19x    frame=34411 fps=454 q=-0.0 size=N/A time=00:23:55.22 bitrate=N/A speed=18.9x    frame=34583 fps=453 q=-0.0 size=N/A time=00:24:02.39 bitrate=N/A speed=18.9x    frame=34747 fps=452 q=-0.0 size=N/A time=00:24:09.23 bitrate=N/A speed=18.9x    frame=34897 fps=451 q=-0.0 size=N/A time=00:24:15.49 bitrate=N/A speed=18.8x    frame=35038 fps=450 q=-0.0 size=N/A time=00:24:21.37 bitrate=N/A speed=18.8x    frame=35198 fps=449 q=-0.0 size=N/A time=00:24:28.04 bitrate=N/A speed=18.7x    [Parsed_ssim_10 @ 0000011796422e00] SSIM Y:0.991919 (20.925549) U:0.993832 (22.098789) V:0.994251 (22.404066) All:0.992627 (21.323440)
[out#0/null @ 00000117ffed06c0] video:15187KiB audio:276440KiB subtitle:0KiB other streams:0KiB global headers:0KiB muxing overhead: unknown
frame=35345 fps=449 q=-0.0 Lsize=N/A time=00:24:34.18 bitrate=N/A speed=18.7x    
